<svg xmlns="http://www.w3.org/2000/svg" viewBox="0 0 400 180" width="400" height="180">
  <path d="M248 72 C248 50 230 38 214 52 C202 64 194 72 186 72" fill="none" stroke="#60A5FA" stroke-width="12" stroke-linecap="round"/>
    <path d="M248 72 C248 94 230 106 214 92 C202 80 194 72 186 72" fill="none" stroke="#60A5FA" stroke-width="12" stroke-linecap="round"/>
      <path d="M124 72 C124 50 142 38 158 52 C170 64 178 72 186 72" fill="none" stroke="white" stroke-width="12" stroke-linecap="round"/>
        <path d="M124 72 C124 94 142 106 158 92 C170 80 178 72 186 72" fill="none" stroke="white" stroke-width="12" stroke-linecap="round"/>
          <circle cx="186" cy="72" r="6" fill="#60A5FA"/>
            <text x="186" y="136" text-anchor="middle" font-family="Helvetica Neue, Arial, sans-serif" font-size="36" font-weight="700" fill="white" letter-spacing="-0.5">One<tspan fill="#60A5FA">2</tspan>One</text>
              <rect x="299" y="114" width="46" height="24" rx="6" fill="#60A5FA"/>
                <text x="322" y="131" text-anchor="middle" font-family="Helvetica Neue, Arial, sans-serif" font-size="11" font-weight="600" fill="#0F2A5E" letter-spacing="1">Pro</text>
                  <text x="186" y="162" text-anchor="middle" font-family="Helvetica Neue, Arial, sans-serif" font-size="9" fill="#60A5FA" letter-spacing="2" opacity="0.6">Tu trabajas, nosotros, el resto.</text>
                  </svg>
